<svg xmlns="http://www.w3.org/2000/svg" width="850.4" height="850.4"><path fill="#FB3449" d="M0 .2h849.7v849.7H0z"/><path fill="#C31C4A" d="M0 .1h849.7v849.7H0z"/><path fill="none" d="M168.9 169h512v512h-512z"/><path fill="none" d="M168.9 169h512v512h-512z"/><g fill="#FFF"><path d="M387.4 274c2.2-.8 3.7-3 3.7-5.2 4.5-18.6 17.8-31.9 32.6-31.9s28.2 13.4 32.6 31.9c.8 2.2 2.2 4.5 3.7 5.2 1.5 1.4 3.7 5.9 3.7 11.9 0 6.7-2.2 10.4-3.7 11.1-3 0-5.9 1.5-6.7 4.5-6.7 16.4-18.6 33.4-29.7 33.4-11.1 0-23-17-29.7-33.4-1.5-3-3.7-4.5-6.7-4.5-.8-.8-3.7-4.5-3.7-11.9.2-5.2 2.4-9.6 3.9-11.1zm-5.3 37.1c8.9 19.3 23.7 38.6 41.5 38.6 21.5 0 36.4-25.9 41.5-38.6 5.2-2.2 9.7-7.5 11.9-15.6 3-11.1.8-25.3-7.5-32.6-6.7-24.5-25.3-40.8-46-40.8-21.5 0-40.1 16.4-46 40.8-8.1 6.7-9.7 21.5-7.5 32.6 2.6 7.5 6.2 13.4 12.1 15.6z"/><path d="M640.9 545.5h-433v-42.3H641v42.3h-.1zM516.4 650.1H332.5l-30.4-89.7h244l-29.7 89.7zM325 389.7c1.5-8.1 8.1-15.6 17.8-18.6 11.1-3.7 23.7-5.9 37.8-7.5-7.5 37.1 7.5 77.1 38.6 106.8 3 3 7.5 3 10.4 0 31.9-30.4 46-69 38.6-106.8 12.6 1.4 25.3 4.5 37.1 7.5 9.7 3 17 10.4 18.6 18.6l19.3 99.4H305.8l19.2-99.4zm94.3 11.9h11.1l3 43.1c-3 3.7-5.9 6.7-8.9 10.4-3-3-5.9-6.7-8.9-10.4l3.7-43.1zm-5.3-28.9h20.8v7.5l-3 6.7H417l-3-6.7v-7.5zm-97.9-45.3l20-11.9c1.5-.8 3.7-.8 5.2 1.4.8 1.4.8 3.7-1.5 5.2l-20 11.9c-1.5.8-3.7.8-5.2-1.4-.7-2.2-.7-4.4 1.5-5.2zm332.3 161.7h-89.7l-20-100.8c-2.2-14.1-13.4-25.9-28.9-30.4-15.6-4.5-32.6-7.5-50.4-9.7-2.2 0-5.2.8-6.7 3s-2.2 4.5-1.5 6.7c6.7 21.5 4.5 43.7-5.2 64.5l-2.2-26.7 4.5-11.1c0-.8.8-2.2.8-3v-16.4c0-4.5-3-7.5-7.5-7.5H406c-4.5 0-7.5 3-7.5 7.5v16.4c0 .8 0 2.2.8 3l4.5 11.1-1.5 26.7a92.66 92.66 0 0 1-5.2-64.5c.8-2.2 0-5.2-1.5-6.7-1.5-2.2-3.7-3-6.7-3-18.6 1.5-35.6 5.2-51.2 9.7-15.6 4.4-26.7 16.4-28.2 30.4l-20 101.6h-28.2v-96.4c0-8.9 4.5-17 11.1-22.3l34.8-25.3c6.7 4.5 14.1 3.7 19.3 0l20-11.9c8.9-5.2 11.1-16.4 5.9-25.3-5.2-8.9-17-11.1-25.3-5.9l-20 11.9c-6.7 3.7-9.7 11.9-8.1 18.6l-35.6 25.9c-11.1 8.1-17 20.8-17 34.2v94.9h-46c-4.5 0-7.5 3-7.5 7.5v57.1c0 4.5 3 7.5 7.5 7.5h86l34.2 99.4c.8 3 3.7 5.2 6.7 5.2h194.3c3 0 5.9-2.2 6.7-5.2l33.4-99.4h86c4.5 0 7.5-3 7.5-7.5v-57.1c.7-3.7-2.3-6.7-6.8-6.7z"/></g><g fill="none" stroke="#FFF" stroke-width="10" stroke-linecap="round" stroke-linejoin="round"><path d="M571.9 173.4c45.3 0 82.1 36.8 82.1 82.1s-36.8 82.1-82.1 82.1-82.1-36.7-82.1-82.1c0-45.4 36.7-82.1 82.1-82.1z"/><path d="M572.3 173.4c22.7 0 41 36.8 41 82.1s-18.4 82.1-41 82.1M571.6 173.4c-22.7 0-41 36.8-41 82.1s18.4 82.1 41 82.1M571.9 173.4v164.1M653.9 258.7H489.8M647 222.2H496.8M643.7 295.2H500.1"/></g></svg>