<svg xmlns="http://www.w3.org/2000/svg" width="612" height="612"><g fill="#9FDDED"><path opacity=".29" d="M456.8 0C542.5 0 612 69.5 612 155.2v301.7c0 85.7-69.5 155.2-155.2 155.2H155.2C69.5 612 0 542.5 0 456.8V155.2C0 69.5 69.5 0 155.2 0h301.6z"/><path d="M310.3 197.1c0 6.5 5.3 11.7 11.7 11.7h146.3c3 0 5.5 2.5 5.5 5.5v116.6c0 3-2.5 5.5-5.5 5.5h-35.2c-6.5 0-11.7 5.3-11.7 11.7v137.5l-23.7 23.5-23.5-23.7v-11l15.1-15.1c5.6-5.6 5.6-14.8 0-20.4L376.4 426l13-12.9c5.6-5.7 5.6-14.8 0-20.4l-15.5-15.1V348c0-6.5-5.3-11.7-11.7-11.7H327c-6.5 0-11.7 5.3-11.7 11.7 0 6.5 5.3 11.7 11.7 11.7h23.5v19.5c0 5 2 9.8 5.5 13.3l10.1 10.1-8.3 8.2c-8.2 8.2-8.2 21.6 0 29.8l8.2 8.2-10.1 10c-3.6 3.6-5.5 8.5-5.4 13.6v15.5c0 4.7 1.9 9.3 5.2 12.6l30.6 30.8c2.9 3 6.9 4.7 11.1 4.7 4.2 0 8.2-1.7 11.2-4.7l31.1-30.6c3.4-3.3 5.2-7.9 5.2-12.6V359.9h23.5c16 0 29-13 29-29V214.3c0-16-13-29-29-29H322.1c-3.1 0-6.1 1.2-8.4 3.4-2.1 2.3-3.4 5.3-3.4 8.4zM148.3 231.1c5.2-6 12.7-9.4 20.7-9.4h9.8l21.2 26.6c3.3 3.9 8.1 6.2 13.3 6.2 5.1 0 10-2.3 13.3-6.2l21.2-26.5h9.8c7.9 0 15.4 3.3 20.6 9.2s7.8 13.6 7 21.5L273.7 339c-.9 8.2-6.4 15.2-14.1 18-4.1 1.5-7 5.1-7.6 9.4l-19.5 141.8c-.2 1.8-1.7 3.2-3.6 3.2h-31.3c-1.9 0-3.4-1.5-3.6-3.4l-19.4-141.6c-.6-4.3-3.5-7.9-7.6-9.4-7.8-2.9-13.3-10-14.1-18.2l-11.6-86.2c-.8-7.8 1.7-15.7 7-21.5zm-17.6-15.6c-9.8 11-14.4 25.6-12.7 40.1l11.5 86.1c1.6 14.4 10 27.2 22.7 34.3l18.6 134.9c1.6 13.7 13.1 24 26.8 24H229c13.7 0 25.2-10.2 26.9-23.8L274.1 376c12.6-7 21.1-19.7 22.7-34.1l11.5-86.6c1.7-14.5-2.9-29-12.6-39.9-9.7-10.9-23.6-17.1-38.2-17.2H243c-4.2 0-8.1 1.9-10.7 5.1l-19.4 23.9-18.8-23.9c-2.6-3.3-6.5-5.2-10.7-5.2H169a52.5 52.5 0 0 0-38.3 17.4zM211.1 101.1c13.1 0 24.9 7.9 29.9 20s2.2 26.1-7 35.3c-9.3 9.3-23.2 12-35.3 7-12.1-5-20-16.8-20-29.9 0-17.9 14.5-32.4 32.4-32.4zm0 88.3c30.9 0 55.9-25 55.9-55.9s-25-55.9-55.9-55.9-55.9 25-55.9 55.9 25 55.9 55.9 55.9z"/></g></svg>