<svg xmlns="http://www.w3.org/2000/svg" width="850.4" height="850.4"><path fill="#FB3449" d="M0 .2h849.7v849.7H0z"/><path fill="#F93549" d="M0 .1h849.7v849.7H0z"/><path fill="none" d="M168.9 169h512v512h-512z"/><path fill="none" d="M168.9 169h512v512h-512z"/><g fill="none" stroke="#FFF" stroke-width="21.333" stroke-linecap="round" stroke-linejoin="round"><path stroke-miterlimit="10" d="M605 383.2c57.6-105.1-58.1-220.7-163.1-163.1M663.3 358.1l-57.8 25.5-25.5-57.9M244.5 458c-57.6 105.1 58.1 220.7 163.1 163.1"/><path stroke-miterlimit="10" d="M186.2 483.1l57.9-25.5 25.5 57.9M304.6 189.4c62.9 0 113.8 51 113.8 113.8 0 62.9-51 113.8-113.8 113.8-62.9 0-113.8-51-113.8-113.8 0-62.9 50.9-113.8 113.8-113.8zM551.4 428.1c62.9 0 113.8 51 113.8 113.8 0 62.9-51 113.8-113.8 113.8s-113.8-51-113.8-113.8c0-62.9 50.9-113.8 113.8-113.8z"/><path stroke-miterlimit="10" d="M270 343.2c9.7 8.4 24.7 14.8 35.5 14.8 17.3 0 31.3-12.3 31.3-27.4s-15-22.6-31.3-27.4c-16.9-5.3-31.3-12.3-31.3-27.4 0-15.1 14-27.4 31.3-27.4 11.6 0 21.8 5.6 27.2 13.8M305.5 233.5v14.9M305.5 358v14.9"/><path d="M496.1 527.8h67.7M496.1 558.1h67.7M593.8 506.7c-8.4-14.2-21.5-23.3-36.3-23.3-25.4 0-46 27.1-46 60.5s20.6 60.5 46 60.5c15.4 0 29.1-10 37.4-25.2"/></g><path fill="none" d="M168.9 169h512v512h-512z"/></svg>