<svg xmlns="http://www.w3.org/2000/svg" width="612" height="612"><path opacity=".29" fill="#9FDDED" d="M456.8 0C542.5 0 612 69.5 612 155.2v301.7c0 85.7-69.5 155.2-155.2 155.2H155.2C69.5 612 0 542.5 0 456.8V155.2C0 69.5 69.5 0 155.2 0h301.6z"/><path fill="#9FDDED" d="M385.5 331.1l7.7-3.9-1.8-3.6-38.8-77.4-58.4 29.3-57.5-5.8-9.1 90.1 62.1 6.3 5.7 32.6-27.2-27.5-5.7 5.6 35.3 35.8 5.7 32.5 22.3-3.9 3.9 4c5.2 5.2 7.9 11.3 7.9 17 0 4.7-1.8 9.3-6 13.6-4.8 4.8-11 7.2-17.1 7.2-5.9 0-11.6-2.2-16-6.5l-152-153.9c-26-26-39.3-59.4-39.3-92.7 0-32 12.3-64 37.7-89.4C170.4 115 202 103 234 103c19.6 0 39.4 4.6 58 13.4v.1c12.5 5.6 33.7 20.1 71.2 51.8 25.1 21.2 45.4 43.3 47.6 45.6 1.3 1.4 3.2 3.2 3.2 3.2 4.7 4.7 7.1 11 7.1 17.4 0 6.5-2.4 12.9-7.3 17.7-4.8 4.8-11.1 7.2-17.4 7.2-6.3 0-12.6-2.4-17.4-7.2-12.4-11.5-23.6-23.1-31.7-31.8-8.1-8.7-13.1-14.5-13.1-14.5l-3-3.5-3 3.4s-.4.4-1.2 1.3c-5.7 6-31.6 29.9-62.6 29.8-14.3 0-29.7-4.8-45.8-18.8l-9.1-9.1-5.7 5.7 9.3 9.3.1.1c17.4 15.3 35.1 21 51.2 21 32.6-.2 58-22.1 66.6-30.5 6.4 7.3 23 25.6 42.5 43.6 4.8 4.8 10.8 7.8 17.2 8.9l103.9 105.2c4.4 4.4 6.6 10.1 6.6 16 0 6.1-2.4 12.4-7.2 17.2-4.8 4.8-11 7.2-17.2 7.2-5.9 0-11.6-2.2-16-6.6l-.2.2-75.1-75.2zm101.4 122c0 6.2-2.4 12.5-7.3 17.4-4.9 4.9-11.2 7.3-17.4 7.3-5.9 0-11.6-2.2-15.9-6.5l-9.2-9.1c-.2-.2-.4-.5-.7-.7l-46.2-46.8-13.1-74.6-14.9 2.6 15.7-7.9 102.5 102.3c4.4 4.4 6.5 10.1 6.5 16zM430 500.5c-4.9 4.9-11.2 7.3-17.3 7.3-5.9 0-11.6-2.2-15.9-6.5l-61-61.8 57.1-10.1-.1-.7 38 38.5c4.4 4.4 6.5 10.1 6.5 15.9 0 6.2-2.4 12.5-7.3 17.4zm-47.2-81.9l.7 4.2-73.4 12.9-12.1-68.8 19.8 2 .4-4v-.1l.8-6.7 18.2-2.8 33.4-5.9 9.7 55.3 2.5 13.9zm-87-134.9l22.3 2.3-6.3 62.9-1 11.2-22.5-2.1-51.8-5.2 7.5-74.2 37 3.7 14.8 1.4zm76.2 45.2l-37.4 18.7-9.1 1.6-6.1 1.1 7.4-71.5-17.7-1.8 39.9-20 33.4 66.6-2.9 1.5-7.5 3.8zm127.5 81.9c6.3-6.3 9.5-14.6 9.5-22.8 0-7.9-3-15.7-8.9-21.7l-98.3-99.5c6.4-1.1 12.6-4.1 17.6-9.1 6.4-6.4 9.6-14.9 9.6-23.4 0-8.3-3.1-16.7-9.5-23.1l-3.1-3.1c-2-2-22.7-24.6-48.2-46.1-36.7-31-57.9-45.8-71.8-52.4-19.9-9.7-41.2-14.7-62.5-14.7-34 0-67.8 12.9-94.7 39.9-26.9 26.9-40.1 61-40 95.1 0 35.5 14.2 71 41.6 98.4l152.1 153.9c5.9 6 13.8 8.9 21.7 8.9 8.2 0 16.5-3.2 22.8-9.5 5.6-5.6 8.4-12.5 8.3-19.3 0-.4 0-.8-.1-1.3l45.4 46c5.9 5.9 13.8 8.9 21.6 8.9 8.3 0 16.6-3.2 23-9.6 6.4-6.4 9.6-14.8 9.6-23 0-.8-.1-1.6-.1-2.5 5.1 3.4 11.1 5.2 17.1 5.1 8.3 0 16.6-3.2 23.1-9.6 6.4-6.4 9.7-14.8 9.7-23.1 0-7.8-2.9-15.7-8.9-21.6l-11.3-11.3c.6 0 1.2.1 1.8.1 8.2-.1 16.5-3.3 22.9-9.6z"/><path fill="none" stroke="#9FDDED" stroke-width="8.62" stroke-linejoin="round" d="M385.5 331.1l7.7-3.9-1.8-3.6-38.8-77.4-58.4 29.3-57.5-5.8-9.1 90.1 62.1 6.3 5.7 32.6-27.2-27.5-5.7 5.6 35.3 35.8 5.7 32.5 22.3-3.9 3.9 4c5.2 5.2 7.9 11.3 7.9 17 0 4.7-1.8 9.3-6 13.6-4.8 4.8-11 7.2-17.1 7.2-5.9 0-11.6-2.2-16-6.5l-152-153.9c-26-26-39.3-59.4-39.3-92.7 0-32 12.3-64 37.7-89.4C170.4 115 202 103 234 103c19.6 0 39.4 4.6 58 13.4v.1c12.5 5.6 33.7 20.1 71.2 51.8 25.1 21.2 45.4 43.3 47.6 45.6 1.3 1.4 3.2 3.2 3.2 3.2 4.7 4.7 7.1 11 7.1 17.4 0 6.5-2.4 12.9-7.3 17.7-4.8 4.8-11.1 7.2-17.4 7.2-6.3 0-12.6-2.4-17.4-7.2-12.4-11.5-23.6-23.1-31.7-31.8-8.1-8.7-13.1-14.5-13.1-14.5l-3-3.5-3 3.4s-.4.4-1.2 1.3c-5.7 6-31.6 29.9-62.6 29.8-14.3 0-29.7-4.8-45.8-18.8l-9.1-9.1-5.7 5.7 9.3 9.3.1.1c17.4 15.3 35.1 21 51.2 21 32.6-.2 58-22.1 66.6-30.5 6.4 7.3 23 25.6 42.5 43.6 4.8 4.8 10.8 7.8 17.2 8.9l103.9 105.2c4.4 4.4 6.6 10.1 6.6 16 0 6.1-2.4 12.4-7.2 17.2-4.8 4.8-11 7.2-17.2 7.2-5.9 0-11.6-2.2-16-6.6l-.2.2-75.1-75.2zm101.4 122c0 6.2-2.4 12.5-7.3 17.4-4.9 4.9-11.2 7.3-17.4 7.3-5.9 0-11.6-2.2-15.9-6.5l-9.2-9.1c-.2-.2-.4-.5-.7-.7l-46.2-46.8-13.1-74.6-14.9 2.6 15.7-7.9 102.5 102.3c4.4 4.4 6.5 10.1 6.5 16zM430 500.5c-4.9 4.9-11.2 7.3-17.3 7.3-5.9 0-11.6-2.2-15.9-6.5l-61-61.8 57.1-10.1-.1-.7 38 38.5c4.4 4.4 6.5 10.1 6.5 15.9 0 6.2-2.4 12.5-7.3 17.4zm-47.2-81.9l.7 4.2-73.4 12.9-12.1-68.8 19.8 2 .4-4v-.1l.8-6.7 18.2-2.8 33.4-5.9 9.7 55.3 2.5 13.9zm-87-134.9l22.3 2.3-6.3 62.9-1 11.2-22.5-2.1-51.8-5.2 7.5-74.2 37 3.7 14.8 1.4zm76.2 45.2l-37.4 18.7-9.1 1.6-6.1 1.1 7.4-71.5-17.7-1.8 39.9-20 33.4 66.6-2.9 1.5-7.5 3.8zm127.5 81.9c6.3-6.3 9.5-14.6 9.5-22.8 0-7.9-3-15.7-8.9-21.7l-98.3-99.5c6.4-1.1 12.6-4.1 17.6-9.1 6.4-6.4 9.6-14.9 9.6-23.4 0-8.3-3.1-16.7-9.5-23.1l-3.1-3.1c-2-2-22.7-24.6-48.2-46.1-36.7-31-57.9-45.8-71.8-52.4-19.9-9.7-41.2-14.7-62.5-14.7-34 0-67.8 12.9-94.7 39.9-26.9 26.9-40.1 61-40 95.1 0 35.5 14.2 71 41.6 98.4l152.1 153.9c5.9 6 13.8 8.9 21.7 8.9 8.2 0 16.5-3.2 22.8-9.5 5.6-5.6 8.4-12.5 8.3-19.3 0-.4 0-.8-.1-1.3l45.4 46c5.9 5.9 13.8 8.9 21.6 8.9 8.3 0 16.6-3.2 23-9.6 6.4-6.4 9.6-14.8 9.6-23 0-.8-.1-1.6-.1-2.5 5.1 3.4 11.1 5.2 17.1 5.1 8.3 0 16.6-3.2 23.1-9.6 6.4-6.4 9.7-14.8 9.7-23.1 0-7.8-2.9-15.7-8.9-21.6l-11.3-11.3c.6 0 1.2.1 1.8.1 8.2-.1 16.5-3.3 22.9-9.6z"/></svg>