<svg xmlns="http://www.w3.org/2000/svg" viewBox="0 0 849.7 849.7"><path fill="#FB3449" d="M0 0h849.7v849.7H0z"/><g fill="none" stroke="#FFF" stroke-width="21.333" stroke-linecap="round" stroke-linejoin="round" stroke-miterlimit="10"><path d="M385 311.2c-15.2-50.7-47.4-169.9 4.9-107.6 65.6 78 67.8 30.7 86.8 1.3 17.9-27.7 42.6 2.8-5.2 107.5M571.5 548.5c0 88.5-65.7 119.8-146.7 119.8-81 0-146.6-31.2-146.6-119.8 0-88.5 65.7-208.8 146.6-208.8 81 0 146.7 120.3 146.7 208.8z"/><path d="M379.5 556.8c12.6 10.9 31.9 19.1 45.9 19.1 22.4 0 40.5-15.9 40.5-35.4s-19.4-29.2-40.5-35.4c-21.9-6.9-40.5-15.9-40.5-35.4s18.1-35.4 40.5-35.4c15.1 0 28.2 7.2 35.2 17.9M425.4 414.9v19.3M425.4 575.9v19.4"/></g><path fill="none" d="M168.9 168.9h512v512h-512z"/><path fill="none" d="M168.9 168.8h512v512h-512z"/><path fill="none" stroke="#FFF" stroke-width="21.333" stroke-linecap="round" stroke-linejoin="round" d="M510.3 528.7h117.9"/><path fill="#FFF" d="M591.6 561.6c-3.2-5-1.7-11.6 3.3-14.7l28.5-18.1-28.5-18.1c-5-3.2-6.4-9.8-3.3-14.7 3.2-5 9.8-6.4 14.7-3.3l42.6 27.1c3.1 2 4.9 5.4 4.9 9s-1.9 7-4.9 9l-42.6 27.1c-1.8 1.1-3.8 1.7-5.7 1.7-3.5-.1-7-1.8-9-5z"/></svg>