<svg xmlns="http://www.w3.org/2000/svg" width="850.4" height="850.4"><path fill="#FB3449" d="M0 .2h849.7v849.7H0z"/><path fill="#F93549" d="M0 .1h849.7v849.7H0z"/><path fill="none" d="M168.9 169h512v512h-512z"/><path fill="none" d="M168.9 169h512v512h-512z"/><g fill="none" stroke="#FFF" stroke-width="21.334" stroke-linecap="round" stroke-linejoin="round"><path d="M578.6 606.3l-265 63.4-99.9-417.1 136.5-34.1"/><path d="M350.2 179.7h277.3v426.7H350.2z"/><path d="M490.1 302.8l-71.9 90.7 71.9 90.6 71.9-90.6zM434.8 263.7l-23-50.7-22.9 50.7M548.8 523.2l23 50.7 22.9-50.7"/></g><path fill="none" d="M168.9 169h512v512h-512z"/></svg>