<svg xmlns="http://www.w3.org/2000/svg" width="611.5" height="611.5"><g fill="#9FDDED"><path opacity=".29" d="M456.4 0c85.6 0 155 69.4 155 155v301.4c0 85.6-69.4 155-155 155H155c-85.6 0-155-69.4-155-155V155C0 69.4 69.4 0 155 0h301.4z"/><path d="M419 394.5h44.9c3.1 0 5.6-2.5 5.6-5.6 0-3.1-2.5-5.6-5.6-5.6H419c-3.1 0-5.6 2.5-5.6 5.6 0 3.1 2.5 5.6 5.6 5.6zM419 317h33.7c3.1 0 5.6-2.5 5.6-5.6s-2.5-5.6-5.6-5.6H419c-3.1 0-5.6 2.5-5.6 5.6s2.5 5.6 5.6 5.6zM419 372.9h33.7c3.1 0 5.6-2.5 5.6-5.6 0-3.1-2.5-5.6-5.6-5.6H419c-3.1 0-5.6 2.5-5.6 5.6 0 3.1 2.5 5.6 5.6 5.6zM419 347.1h67.3c3.1 0 5.6-2.5 5.6-5.6s-2.5-5.6-5.6-5.6H419c-3.1 0-5.6 2.5-5.6 5.6s2.5 5.6 5.6 5.6zM419 291.1h56.1c3.1 0 5.6-2.5 5.6-5.6s-2.5-5.6-5.6-5.6H419c-3.1 0-5.6 2.5-5.6 5.6s2.5 5.6 5.6 5.6zM419 269.6h67.3c3.1 0 5.6-2.5 5.6-5.6 0-3.1-2.5-5.6-5.6-5.6H419c-3.1 0-5.6 2.5-5.6 5.6 0 3.1 2.5 5.6 5.6 5.6zM419 213.6h44.9c3.1 0 5.6-2.5 5.6-5.6 0-3.1-2.5-5.6-5.6-5.6H419c-3.1 0-5.6 2.5-5.6 5.6 0 3.1 2.5 5.6 5.6 5.6zM419 192.1h67.3c3.1 0 5.6-2.5 5.6-5.6 0-3.1-2.5-5.6-5.6-5.6H419c-3.1 0-5.6 2.5-5.6 5.6 0 3.1 2.5 5.6 5.6 5.6zM351 205.7c-2.2 2.2-2.2 5.7 0 7.9l16.1 16.1 26.2-39.3c1.7-2.6 1-6.1-1.6-7.8-2.6-1.7-6.1-1-7.8 1.6l-18.6 28-6.4-6.4c-2.2-2.3-5.7-2.3-7.9-.1zM338.5 347.1h33.7v33.7h-33.7v-33.7zm-5.6 44.9h44.9c3.1 0 5.6-2.5 5.6-5.6v-44.9c0-3.1-2.5-5.6-5.6-5.6h-44.9c-3.1 0-5.6 2.5-5.6 5.6v44.9c0 3.1 2.5 5.6 5.6 5.6zM338.5 269.6h33.7v33.7h-33.7v-33.7zm-5.6 44.9h44.9c3.1 0 5.6-2.5 5.6-5.6V264c0-3.1-2.5-5.6-5.6-5.6h-44.9c-3.1 0-5.6 2.5-5.6 5.6v44.9c0 3 2.5 5.6 5.6 5.6z"/><path d="M332.9 236.9h11.2c3.1 0 5.6-2.5 5.6-5.6 0-3.1-2.5-5.6-5.6-5.6h-5.6V192h16.8c3.1 0 5.6-2.5 5.6-5.6 0-3.1-2.5-5.6-5.6-5.6h-22.4c-3.1 0-5.6 2.5-5.6 5.6v44.9c0 3.1 2.5 5.6 5.6 5.6z"/><path d="M517.2 425.2H304V144.7h213.1v280.5zm5.6-291.7H298.4c-3.1 0-5.6 2.5-5.6 5.6v291.7c0 3.1 2.5 5.6 5.6 5.6h224.4c3.1 0 5.6-2.5 5.6-5.6V139.1c0-3.1-2.5-5.6-5.6-5.6zM149.7 121.7v-.5c.9-19.7 14.1-21.6 19.3-21.6h1.4c4.2 0 19.3.9 20.2 21.6v.5s1.9 20.7-7 30.5c-3.3 3.8-7.5 5.6-13.6 5.6-5.6 0-10.3-1.9-13.6-5.6-7.2-8.4-7.2-24.8-6.7-30.5zm19.7 53.6h1.5c10.8 0 19.7-4.2 25.8-11.3 13.6-15 11.7-39.9 11.3-43.7-1.4-31-24.4-38.5-38-38-13.6-.5-36.6 7-38 38-.5 3.8-2.3 28.6 11.3 43.7 6.8 7 15.8 10.8 26.1 11.3zm-50.2 45.5c2.8-2.8 3.8-3.8 6.6-5.6 6.6-5.2 14.6-8.9 20.2-11.7l17.8 24.4c1.9 2.3 4.2 3.8 7 3.8s5.6-1.4 7-3.8l17.8-24.4c5.2 2.3 13.1 6.6 20.2 11.7 2.8 1.9 3.8 2.8 6.6 5.6 3.3 6.1 2.3 38.5-1.9 54-3.8 13.6-15 33.8-15 34.3s-.5.5-.5.9c-2.8 6.1-4.7 12.7-5.2 19.7l-15 148.4c0 .5 0 .5-.5.5H158c-.5 0-.5 0-.5-.5l-15-148.4c-.5-6.6-2.3-13.6-5.2-19.7 0-.5 0-.5-.5-.9 0 0-11.3-20.7-15-34.3-5-15-5.9-47.4-2.6-54zm-12.7-12.2c-11.7 11.7-5.2 59.6-2.3 70.9 4.2 14.6 14.6 34.8 16.4 37.6 1.9 4.7 3.3 9.4 3.8 14.1l15 148.4c.9 9.4 8.5 16.4 17.8 16.4h26.3c9.4 0 16.9-7 17.8-16.4l15-148.4c.5-4.7 1.9-9.4 3.8-14.1 1.9-3.3 12.7-23 16.4-37.6 2.8-11.3 9.4-59.2-2.3-70.9-3.3-3.3-5.2-4.7-8.9-7.5-13.1-9.9-29.1-16.4-30.1-16.4-3.8-1.4-8-.5-10.3 2.8l-15 20.7-15-20.7c-2.3-3.3-6.6-4.7-10.3-2.8-.5.5-16.4 6.6-30.1 16.4-3.3 2.8-5.2 4.7-8 7.5z"/></g></svg>