<svg xmlns="http://www.w3.org/2000/svg" viewBox="0 0 127.6 32"><path fill="#95D600" d="M28.5 0H99c2.9 0 5.3 2.4 5.3 5.3v21.3c0 2.9-2.4 5.3-5.3 5.3H28.5c-2.9 0-5.3-2.4-5.3-5.3V5.3c0-2.9 2.4-5.3 5.3-5.3z"/><path fill="#FFF" d="M78.3 13.6h.7c.3 0 .5-.2.5-.5s-.2-.5-.5-.5h-.7c-.3 0-.5.2-.5.5s.2.5.5.5"/><path fill="#FFF" d="M87.3 25.5l-.6-1.5c-.2-.4-.6-.7-1.1-.7H85v-9.7h1c.5 0 .9-.3.9-.8.1-.4-.1-.9-.5-1.1L76.4 7c-.6-.3-1.4-.3-2.1 0l-10.2 4.8c-.4.2-.6.6-.5 1.1.1.5.5.8.9.8h1v9.7h-.4c-.5 0-.9.3-1.1.7l-.6 1.5c-.1.4-.1.8.1 1.1.2.3.6.5 1 .5h21.6c.4 0 .8-.2 1-.5.3-.4.4-.8.2-1.2M64.6 12.6l10.1-4.8c.4-.2.9-.2 1.2 0L86 12.6h-1.6c-.3 0-.5.2-.5.5v10.2H82v-6.8c0-1.1-.9-1.9-1.9-1.9-1.1 0-1.9.9-1.9 1.9v6.8h-1v-6.8c0-1.1-.9-1.9-1.9-1.9-1.1 0-1.9.9-1.9 1.9v6.8h-1v-6.8c0-1.1-.9-1.9-1.9-1.9-1.1 0-1.9.9-1.9 1.9v6.8h-1.9v-9.7h9.5c.3 0 .5-.2.5-.5s-.2-.5-.5-.5H64.6zm16.6 3.9v6.8h-1.9v-6.8c0-.5.4-1 1-1 .4.1.9.5.9 1m-4.9 0v6.8h-1.9v-6.8c0-.5.4-1 1-1 .4.1.9.5.9 1m-4.9 0v6.8h-1.9v-6.8c0-.5.4-1 1-1 .5.1.9.5.9 1m15 9.6s-.1.1-.2.1H64.5c-.1 0-.2-.1-.2-.1s-.1-.1 0-.2l.6-1.4c0-.1.1-.1.2-.1h20.4c.1 0 .2 0 .2.1l.6 1.5c.2 0 .1.1.1.1M56.7 17.7c.1-.2.1-.3.1-.5 0-.3-.1-.6-.3-.8.2-.2.3-.5.3-.8 0-.3-.1-.6-.3-.8.2-.2.3-.5.3-.8 0-.3-.1-.6-.3-.8.2-.2.3-.5.3-.8 0-.7-.5-1.2-1.2-1.2h-.1c.4-.6.5-1.2.5-1.8v-1c0-.6-.5-1-1-1-.6 0-1 .5-1 1v.4c0 .2-.1.2-.2.2s-.2 0-.2-.2v-.4c0-.6-.5-1-1-1-.6 0-1 .5-1 1v.4c0 .2-.1.2-.2.2s-.2-.1-.2-.2v-.4c0-.6-.5-1-1-1-.6 0-1 .5-1 1v1c0 .5.1 1 .3 1.4l-1.3 1.1h-1.5v-.8h-2.8v7.7h2.8V18h1.1l.6.3c-.6.9-.9 1.9-.9 3 0 2.7 2.3 5.1 5.1 5.2h.2c1.4 0 2.7-.5 3.7-1.5s1.6-2.4 1.6-3.8c0-1.3-.5-2.5-1.4-3.5M55 13.5h.6c.2 0 .4.2.4.4s-.2.4-.4.4h-1.5c.2 0 .3-.1.5-.2.2-.2.3-.4.4-.6m.6 1.6c.2 0 .4.2.4.4s-.2.4-.4.4H54c-.2 0-.4-.2-.4-.4s.2-.4.4-.4h1.6zM54 16.8h1.6c.2 0 .4.2.4.4s-.2.4-.4.4H54c-.2 0-.4-.2-.4-.4s.2-.4.4-.4m2-4.5c0 .2-.2.4-.4.4h-.5c0-.3-.1-.5-.3-.7l-.1-.1h.9c.3 0 .4.2.4.4M45.9 18h-1.2v-6.1h1.2V18zm2.9-.4l-.8-.4h-1.3v-4.5h1.8l2.4-2 2.5.7.9 1.1c.1.1.2.3.1.5 0 .2-.1.3-.3.4-.3.2-.6.2-.9-.1l-.8-.8-2.3 1.9.2.3c-.1 1-.5 2-1.3 2.8h-.2zm6 2.8H54v-.2c0-.3-.3-.6-.6-.6h-1.2c-.3 0-.6.3-.6.6s.3.6.6.6h1.2c.8 0 1.4.6 1.4 1.4s-.6 1.4-1.4 1.4h-.2v.8h-.8v-.8h-.2c-.8 0-1.4-.6-1.4-1.4V22h.8v.2c0 .3.3.6.6.6h1.2c.3 0 .6-.3.6-.6s-.3-.6-.6-.6h-1.2c-.8 0-1.4-.6-1.4-1.4 0-.8.6-1.4 1.4-1.4h.2V18h.7l.1.1v.7h.2c.8 0 1.4.6 1.4 1.4v.2z"/><defs><path id="a" d="M43 6.3h45.2v21.3H43z"/></defs></svg>