<svg xmlns="http://www.w3.org/2000/svg" viewBox="0 0 1644 726.4"><path d="M830.6 472.1c9.4 0 17.1 7.3 17.1 16.1 0 1.6 0 3.2-.9 4-1.7 7.3-8.5 12.1-17.1 12.1-7.7 0-14.5-4.8-17.1-12.1 0-1.6-.9-2.4-.9-4 1-8.1 9.5-16.1 18.9-16.1zm338.2 20.9c-1.7 7.3-8.5 12.1-17.1 12.1-7.7 0-14.5-4.8-17.1-12.1 0-1.6-.9-2.4-.9-4 0-8.9 7.7-16.1 17.1-16.1 9.4 0 17.1 7.3 17.1 16.1 1.8.8.9 2.4.9 4zm-17-51.6c-28.2 0-51.2 21-51.2 47.6 0 21 14.5 38.7 34.2 45.1v62.1c0 1.6-1.7 3.2-3.4 3.2h-281c-1.7 0-3.4-1.6-3.4-3.2v-62.1c19.5-6.4 34-24.1 34-45.1 0-25.8-23.1-47.6-51.2-47.6-28.2 0-51.2 21-51.2 47.6 0 21 14.5 38.7 34.2 45.1v62.1c0 19.3 16.2 34.7 36.7 34.7h281c20.5 0 36.7-15.3 36.7-34.7v-62.1c19.6-6.5 34.2-24.2 34.2-45.1 1.6-26.6-21.5-47.6-49.6-47.6z"/><path d="M1342.8 390.2h-23.1V259.6c0-17.7-15.4-33.1-34.2-33.9V107.2c0-19.3-16.2-34.7-36.7-34.7H742.4c-20.5 0-36.7 15.3-36.7 34.7v117.7c-18.8 1.6-34.2 16.1-34.2 33.9v130.6H644.2V34.7c0-1.6 1.7-3.2 3.4-3.2h695.2c1.7 0 3.4 1.6 3.4 3.2V391c-.8-.8-2.5-.8-3.4-.8zm-59.7-133.8c.9 0 2.6.8 2.6 1.6s.9.8.9 1.6v130.6H704.8V259.6c0-.8 0-1.6.9-1.6.9-.8 1.7-1.6 2.6-1.6h574.8zm-30.8-31.5H739V107.2c0-1.6 1.7-3.2 3.4-3.2h506.5c1.7 0 3.4 1.6 3.4 3.2v117.7zm-608.1 466v-266c0-1.6 1.7-3.2 3.4-3.2h695.3c1.7 0 3.4 1.6 3.4 3.2v266.9c0 1.6-1.7 3.2-3.4 3.2H647.6c-1.7-.8-3.4-2.4-3.4-4.1zM1342.8 0H647.6c-20.5 0-36.7 15.3-36.7 34.7V691.8c0 19.3 16.2 34.7 36.7 34.7h695.2c20.5 0 36.7-15.3 36.7-34.7V34.7c.1-19.4-16.2-34.7-36.7-34.7z"/><path fill="#95D600" d="M422 300.2c-77.3 0-142.6-65.3-142.6-142.6S344.7 15 422 15s142.6 65.3 142.6 142.6S499.3 300.2 422 300.2zM422 0c-85.4 0-157.6 72.2-157.6 157.6 0 85.4 72.2 157.6 157.6 157.6S579.6 243 579.6 157.6C579.6 72.2 507.4 0 422 0z"/><path fill="#95D600" d="M492.1 103.5L398 197.6l-41.7-41.7c-2.9-2.9-7.7-2.9-10.6 0-2.9 2.9-2.9 7.7 0 10.6l47 47c1.4 1.4 3.3 2.2 5.3 2.2s3.9-.8 5.3-2.2l99.4-99.5c2.9-2.9 2.9-7.7 0-10.6-3-2.8-7.7-2.8-10.6.1z"/></svg>