<svg xmlns="http://www.w3.org/2000/svg" viewBox="0 0 850.4 850.4"><path fill="#FB3449" d="M0 .2h849.7v849.7H0z"/><path fill="#FB3449" d="M0 .1h849.7v849.7H0z"/><g fill="none" stroke="#FFF" stroke-width="21.333" stroke-linecap="round" stroke-linejoin="round"><path stroke-miterlimit="10" d="M186.9 306.1l368-108.9 65.6 221.9-367.9 108.8zM234.9 468.2c33-9.8 67.6 9.1 77.4 42M557.3 436.4c-9.1-33 10.4-70.6 44.8-79.9M568.2 256.6c-30.7 9.8-62.9-9.1-72-42.1M246.7 288.4c9.8 33-9.1 67.6-42.1 77.4M654.2 436.4h16.7v234.4H287.1V557.7M287.1 608.5c34.4 0 62.3 27.9 62.3 62.3M609.7 670.8c0-34.4 25.8-62.3 57.5-62.3M667.2 501.7c-23.1 0-43-14.8-52.2-36"/><path stroke-miterlimit="10" d="M385 408.1c10.9 4.8 25.9 6.4 35.5 3.4 15.3-4.7 24.4-19.4 20.2-32.8-4.1-13.4-19.5-15.9-35.2-15.7-16.5-.1-31.1-2.3-35.2-15.7-4.1-13.4 4.9-28.1 20.2-32.8 10.3-3.2 20.8-1 27.9 4.8M386.4 301.1l4.1 13.3M420.5 411.4l4.1 13.3"/><path d="M432.7 542.6h61.7M432.7 570.3h61.7M521.8 523.5c-7.7-12.9-19.6-21.2-33.1-21.2-23.2 0-42 24.7-42 55.2 0 30.5 18.8 55.1 42 55.1 14.1 0 26.5-9.1 34.1-23"/></g><path fill="none" d="M168.9 169h512v512h-512z"/><path fill="none" d="M168.9 169h512v512h-512z"/></svg>