<svg xmlns="http://www.w3.org/2000/svg" width="612" height="612"><path fill="#FFF" d="M283.4 139.1v-.5c.9-19.7 14.1-21.6 19.3-21.6h1.4c4.2 0 19.3.9 20.2 21.6v.5s1.9 20.7-7.1 30.6c-3.3 3.8-7.5 5.6-13.6 5.6-5.6 0-10.3-1.9-13.6-5.6-7.1-8.5-7.1-25-6.6-30.6zm19.8 53.6h1.5c10.8 0 19.7-4.2 25.9-11.3 13.6-15 11.8-40 11.3-43.7-1.4-31-24.4-38.5-38.1-38.1-13.6-.5-36.7 7.1-38.1 38.1-.5 3.8-2.4 28.7 11.3 43.7 6.9 7 15.8 10.8 26.2 11.3zm-50.3 45.6c2.8-2.8 3.8-3.8 6.6-5.6 6.6-5.2 14.6-8.9 20.2-11.8l17.9 24.4c1.9 2.3 4.2 3.8 7.1 3.8s5.6-1.4 7.1-3.8l17.9-24.4c5.2 2.3 13.2 6.6 20.2 11.8 2.8 1.9 3.8 2.8 6.6 5.6 3.3 6.1 2.4 38.5-1.9 54.1-3.8 13.6-15 33.8-15 34.3s-.5.5-.5.9c-2.8 6.1-4.7 12.7-5.2 19.7l-15 148.5c0 .5 0 .5-.5.5h-26.3c-.5 0-.5 0-.5-.5l-15-148.5c-.5-6.6-2.4-13.6-5.2-19.7 0-.5 0-.5-.5-.9 0 0-11.3-20.7-15-34.3-5.4-15.1-6.3-47.6-3-54.1zM240.2 226c-11.8 11.8-5.2 59.7-2.4 71 4.2 14.6 14.6 34.8 16.5 37.6 1.9 4.7 3.3 9.4 3.8 14.1l15 148.5c.9 9.4 8.5 16.5 17.9 16.5h26.3c9.4 0 16.9-7 17.9-16.5l15-148.5c.5-4.7 1.9-9.4 3.8-14.1 1.9-3.3 12.7-23 16.5-37.6 2.8-11.3 9.4-59.2-2.4-71-3.3-3.3-5.2-4.7-8.9-7.5-13.2-9.9-29.1-16.5-30.1-16.5-3.8-1.4-8-.5-10.3 2.8l-15 20.7-15-20.7c-2.4-3.3-6.6-4.7-10.3-2.8-.5.5-16.5 6.6-30.1 16.5-3.5 2.8-5.4 4.7-8.2 7.5z"/><path opacity=".29" fill="#9FDDED" d="M456.8 0C542.5 0 612 69.5 612 155.2v301.7c0 85.7-69.5 155.2-155.2 155.2H155.2C69.5 612 0 542.5 0 456.8V155.2C0 69.5 69.5 0 155.2 0h301.6z"/><path fill="#9FDDED" d="M128.5 449v20.6c0 6 4.9 11 11 11h329c6 0 11-4.9 11-11V449c-22.3-45.2-53.1-58.4-59.9-60.8h-21.5c-32.8 0-59.5-26.7-59.5-59.5V309l2.9-3.5c8.9-10.6 15.7-23.4 20.1-38 .8-4.8 4.9-8.4 6.9-10.1 5.8-5.7 6.8-14.4 3.1-20.3-1.7-2.5-4.7-6.6-4.4-12.3V213v-28.8c-.3-15.5-5.1-29-13.3-37.7-8.8-9.3-20.6-13.1-28.9-14.7-15.6-3-31.4-2.6-45.7 1-12.3 3.1-22.9 10.2-29.1 19.5-5.5 8.1-8.6 18.7-9.2 30.8-.1 8.5-.1 17.4-.1 26.3v15.3c.7 5.1-2.5 9.7-4 11.9-4.1 7.4-2.5 16.5 3 21 4.9 3.4 6.6 9.2 7.6 12.3 4.2 13.3 10.6 24.7 19.3 35.1l2.9 3.5v20.1c0 32.8-26.7 59.5-59.5 59.5h-21.5c-7.1 2.6-37.9 15.8-60.2 60.9zm339.9 56.7h-329c-19.9 0-36-16.2-36-36l1.2-28.9c30-63.2 76.5-76.6 78.5-77.2l3.3-.4H210c19 0 34.5-15.5 34.5-34.5v-11.2c-9.3-11.9-16.2-24.9-20.6-38.5l-.9-2.8c-14.3-13-17.9-34.1-8.8-50.5.2-.6.9-1.6 1.7-2.8l-.1-13.5c0-9 0-18.1.1-27.1.7-17.1 5.4-32.3 13.4-44.1 9.5-14.3 25.5-25.2 43.7-29.8 17.8-4.5 37.4-5 56.6-1.3 17.1 3.3 31.8 10.9 42.4 22.1 12.5 13.2 19.7 32.6 20.2 54.6.1 9.9 0 19.6 0 29.2v9.9c.4.5.6 1 .9 1.5 9.5 15.1 7 36.8-6.1 49.9l-2.1 1.9c-5.1 16.3-12.3 30-21.4 41.8v10.7c0 19 15.5 34.5 34.5 34.5l26.8.4c2 .6 48.5 14 78.5 77.2l1.2 5.4v23.5c0 19.8-16.2 36-36.1 36z"/></svg>