<svg id="Layer_1" xmlns="http://www.w3.org/2000/svg" width="794.7" height="131.6"><style>.st0{fill:#2e2a25}.st1{fill:#fff36e}</style><switch><g><path class="st0" d="M473.6 16.7c-.9.8-1.7 1.8-2.8 2.4-9.8 4.9-20.1 8.2-30.8 10.8-.5.1-1 .3-1.5.4V38h9.4v64h-38.3V38h9.4v-4.1c-7.4.3-14.8.9-22.2.9-7.4 0-14.7-.6-22.2-1V38h9.4v64h-38.3V38h9.4v-7.6c-5.1-1.5-10.3-2.7-15.3-4.5-5.9-2.1-11.6-4.7-17.4-7.1-1.2-.5-2-1.3-2.2-2.6-.2-1.3.2-2.4 1.3-3.2 1.1-.8 2.3-.7 3.5-.2 5.9 2.4 11.8 5 17.9 7.2 4 1.5 8.1 2.4 12.3 3.6V9.3h19.2c0 .5.1 1.1.1 1.7v14.7c0 1.1.3 1.4 1.4 1.5 8.2.9 16.4 1.4 24.7 1.1 5.9-.2 11.7-.8 17.6-1.2 1.1-.1 1-.8 1-1.4V12.4 9.3h19.3v14.3c10.4-2.5 20.2-5.7 29.6-10.3 2.7-1.3 3.8-1.1 5.6 1.3v2.1zM361.3 95.5h6c.8 0 1.2-.3 1.5-1.1 1.1-3.1 3.1-5.4 6-7 .9-.5 1.9-.8 2.8-1.2V44.6h-3.1V51c-.1 1.5-.9 2.5-2.4 2.9-1.4.4-2.5-.2-3.4-1.2-.2-.2-.4-.5-.6-.8-2.1 3-4.1 2.9-6.4-.1-1.1 1.8-2.3 2.5-3.8 2.1-1.7-.5-2.5-1.7-2.6-3.9v-5.5h-3v41.8c4.6 1.6 7.6 4.6 9 9.2m54.8-50.9v41.8c4.4 1.4 7.4 4.1 8.9 8.4.1.3.6.7.9.7 2.1.1 4.3 0 6.4 0 1.5-4.7 4.6-7.7 9.1-9.2V44.6h-3v5.3c0 2.3-.7 3.5-2.4 4-1.6.5-2.8-.1-4.1-2-2 2.9-4.2 3-6.4.1-.3.4-.5.9-.8 1-1 .4-2.1 1-3.1.9-1.3-.1-2.1-1-2.4-2.4-.1-.7-.1-1.5-.1-2.2v-4.7h-3zm-54.3-19.5h6.2v-9.3h-6.2v9.3zm63.9 0h6.1v-9.3h-6.1v9.3zM368 31.8h-6.2v6.1h6.2v-6.1zm57.7 6.1h6.1v-6.2h-6.1v6.2zm-48.1 57.6v-2.4c-.9.9-1.4 1.5-2.2 2.4h2.2zm38.5-.1h2.3c-.9-.8-1.5-1.4-2.3-2.2v2.2zm-63.9 0h2c-.7-.7-1.2-1.3-2-2.2v2.2zm89.3-1.7l-.5-.5-1.8 1.8.5.5h1.8v-1.8z"/><path class="st0" d="M364.8 79.6c-5.3 0-9.6-4.4-9.6-9.7 0-5.3 4.4-9.6 9.7-9.5 5.3 0 9.6 4.3 9.6 9.6 0 5.4-4.3 9.6-9.7 9.6m.1-6.4c1.7 0 3.2-1.5 3.1-3.1 0-1.7-1.5-3.1-3.2-3.1-1.8 0-3.2 1.4-3.2 3.2.2 1.7 1.5 3 3.3 3M428.8 79.6c-5.3 0-9.6-4.3-9.6-9.6 0-5.4 4.3-9.6 9.7-9.6 5.3 0 9.6 4.4 9.6 9.6 0 5.3-4.4 9.7-9.7 9.6m-.1-6.5c1.8.1 3.2-1.2 3.3-2.9.1-1.8-1.2-3.3-3.1-3.3-1.7 0-3.2 1.3-3.2 3-.1 1.7 1.3 3.2 3 3.2"/><path class="st1" d="M469.4 123.1c-.9 0-1.8-.3-2.5-1l-44.4-44.4c-1.4-1.4-1.4-3.6 0-5s3.6-1.4 4.9 0l44.4 44.4a3.501 3.501 0 0 1-2.4 6"/><path class="st1" d="M425 123.1c-.9 0-1.8-.3-2.5-1-1.4-1.4-1.4-3.6 0-5l44.4-44.4c1.4-1.4 3.6-1.4 4.9 0 1.4 1.4 1.4 3.6 0 5l-44.4 44.4c-.6.6-1.5 1-2.4 1"/></g></switch></svg>