<svg id="Layer_1" xmlns="http://www.w3.org/2000/svg" width="7670" height="817"><style>.st1{fill:#fff}</style><g id="Capa_2"><g id="Capa_1-2"><path fill="#ff671b" d="M2802 .7h2066v815.7H2802z"/><path class="st1" d="M3151.6 521.9V263.4h49.5v92.1c13.1-17.3 33.9-26.9 55.6-25.8 54.1 0 85.1 42.1 85.1 97.5s-34.5 98.6-87 98.6c-21.8 1.1-42.5-9.3-54.8-27.3v22.8l-48.4.6zm94.5-146.5c-25.1 0-46.2 18.6-46.2 52.8s21.1 53.1 46.2 53.1 45.8-19 45.8-53.1-20-52.8-45.8-52.8M3410 413.8l45.4-6.9c10-1.5 13.9-6.8 13.9-13.3 0-13.3-10-24.3-31.2-24.3-18-1.4-33.7 12-35.2 30l-44.3-10c3-29.3 30-61.6 79.2-61.6 58.5 0 80 33.5 80 71.1v91.9c0 10 .8 20.1 2.2 30h-45.5c-1.2-7.4-1.8-14.9-1.8-22.4-12 18.2-32.6 28.7-54.4 27.7-39.4 0-63.5-27-63.5-56.2 0-33.5 24.4-52.1 55.2-56.6m59.3 32v-8.4l-41.7 6.5c-12.8.3-22.9 10.8-22.9 23.6 0 12 9.8 21.8 21.9 21.7.7 0 1.5 0 2.2-.1 21 0 40.5-10 40.5-43.3M3589.1 522.2h-50V331h48.4v26.3c11.5-18.2 31.8-28.9 53.3-28.3 45.7 0 66.8 33.3 66.8 74.6v118.6h-50v-110c0-21-10-37.5-34.2-37.5-21.8 0-34.5 17.2-34.5 39l.2 108.5zM3840.7 385c-4.9-1.1-10-1.6-15-1.6-25.5 0-47.7 12.7-47.7 53.3v86h-50V331.4h48.4v30c11.3-24.9 36.8-30 52.6-30 3.9.1 7.7.3 11.6.8l.1 52.8zM4024.6 466c-9.4 31.8-38.7 58.5-84 58.5-50.7 0-95.2-36.4-95.2-98.6 0-58.9 43.5-97.1 90.7-97.1 57 0 91.1 36.4 91.1 95.6 0 7.1-.8 14.6-.8 15.4h-132c1.6 24.2 22.1 42.7 46.3 42 18.8 1.5 36.2-10.1 42-28.1l41.9 12.3zm-46.6-60.4c-.7-18.4-12.7-36.4-41.2-36.4-21.2-.8-39.4 15.2-41.3 36.4h82.5zM4086.4 517c3.3 21 21.9 36.1 43.2 34.9 31.5 0 49.1-15.8 49.1-51.4V487c-11.9 16.2-31.3 25.1-51.4 23.6-49.2 0-85.8-37.9-85.8-89.9 0-48.7 35.2-89.9 85.8-89.9 29.3 0 46.2 12.7 52.5 25.1v-25h48.1v167.9c0 50.6-27.4 96.7-96.7 96.7-50.7 0-84.4-31.5-89.9-66.8l45.1-11.7zm93.1-96.1c1.6-24.2-16.7-45.2-40.9-46.8-24.2-1.6-45.2 16.7-46.8 40.9-.1 2-.1 4 0 5.9 0 28.9 18.3 46.9 44.2 46.9 25.8 0 43.5-18.4 43.5-46.9M4251.1 330.9h49.9v191.9h-49.9zM4512.7 426.6c0 53.4-43.3 96.7-96.7 96.8-53.4 0-96.7-43.3-96.8-96.7 0-53.4 43.3-96.7 96.7-96.8s96.7 43.3 96.8 96.7m-50 0c0-34.9-22.5-52.6-46.9-52.6s-46.9 17.7-46.9 52.6 22.5 52.5 46.9 52.5 46.9-17.6 46.9-52.5"/></g></g></svg>