<svg xmlns="http://www.w3.org/2000/svg" viewBox="0 0 1610.4 944"><g fill="#FFF" stroke="#FFF" stroke-width="13" stroke-miterlimit="10"><path d="M477.6 599c.1 0 .2.1.4.1 22.4 6.8 34.1-6.6 34-11.5-.1-4.9 7 3.3-4.7 16.6-11.7 13.4 11 14.2 11 14.2s-6.5 4.9-12.7 3.8c-.5-.1-1.1-.1-1.6 0-7.1-6.2-18.2-16-26.4-23.2zm28.9-67.3c-2.3-4.1 3.3-2.4 4.7-3 .5-.2 2.9-1 3.4-1.2 1.5-.5 4.6-5.7 5.4-1 .9 4.7-1 17.8-1 17.8s.3 1 1.4 4.5c-1.4-3.4-2.4-6-2.4-6s-9.1-6.9-11.5-11.1zm45.4 41.4c3.1 3.9 20.6 6.6 33.4-13 .1-.1.1-.2.2-.3-1.7 10.8-3.9 25.4-5.1 34.7-.5.3-.9.6-1.2 1.1-4.1 4.8-12.2 5.3-12.2 5.3s16.8-15.3-.7-18c-17.6-2.8-17.4-13.7-14.4-9.8zM498.2 625c.2.2.5.4.8.7-1.8 3-1.5 7 3.4 8.5 1.7.5 3.2.5 4.6 0 2.2 2.2 4.1 3.9 5.1 3.9 1.9-.1 2.1-3.6.1-7.2 3.3-3.1 6.1-7.1 8.6-7.6 4.7-.9-4.7 10 2.9 14.7 7.4 4.6 22.7-1.6 29.2 1.5.3.3.5.4.7.3.2 0 .3-.2.4-.7 3-6.5 18.8-11.6 21.4-19.9 2.7-8.5-11.4-10.8-7.3-13.1 2.3-1.3 6.9 0 11.5.3.8 4.1 3.2 6.7 4.7 5.5.7-.6 1.1-3.2 1.4-6.3 1.4-.6 2.6-1.5 3.5-3 2.7-4.3.4-7.6-2.9-8.7 0-.5.1-.8.2-1.1.7-2.7 1-17.8 1.3-26.2.3-8.4 1.7-8.9 5-15.9 2.2-4.7-.8-5.2-3-5.1 1-19.4-12.6-43.3-26.6-51.3 3.6 23.6-21.7 54.3-21.7 54.3s-.2-7.4-2.6-4.9-7.1.9-6.6-6.7c.5-7.7 10.7-4.7 10.7-4.7l1.4-3c1.1-3.7-7-3.3-5.3-5.5 1.7-2.3 8.9-.7 8.9-.7s.7-.3-.1-4.9c-.9-4.7-8.9.7-9.5-5.7-.7-6.4-.2-2.9-8.6-.7-8.3 2.2-1.1 10.7-1.1 10.7l-.7.3c-5.9 2.1-10.9-7.1-10.1-14 .8-6.9-8.7-1-8.7-1l-5.3-5.5-.4.2-1.1 6.1s-9.8 5-4.7 9.8c5.1 4.8 6.5 13.2.6 15.3l-.7.3s.1-11.1-7.7-7.4c-7.8 3.7-9.1 2.3-5.5 7.7 3.6 5.3-6.3 5.5-3.9 9.7 2.3 4.1 2.9 3.5 2.9 3.5s4.5-6 7.2-5.3c2.7.7-3.8 5.4-.6 7.6l3 1.3s5.9-8.8 11.2-3.3c5.3 5.5 2.7 9.8-.7 9.4-3.5-.4 1.1 5.4 1.1 5.4s-39.2-7.3-51.6-27.7c-5.6 15.1-.6 42.2 12.6 56.4-1.8 1.3-3.7 3.7 1 5.9 7 3.3 8.5 2.7 14 9 5.4 5.8 15.3 17.1 17.6 18.8zM399.5 458.7l163.4-49.9 3.2 10.5-163.4 50-3.2-10.6M657.3 676.5l6.8 17.7-164.7 63.2-6.8-17.7 164.7-63.2M362.8 453.1l208.4-71.7 3.6 10.4-208.4 71.8-3.6-10.5"/><path d="M458.9 823.6L306.2 404.1l266.6-97c10.5-3.8 21.6 2.5 25.9 14.4l137.6 378.1c4.4 12-.1 23.1-10.8 27l-266.6 97zm287.8-127.8L609.1 317.7c-5.1-13.9-16.8-22.9-29.8-22.9-3.4 0-6.9.6-10.2 1.8l-277 100.8 160.2 440.2 277-100.8c16.5-5.9 23.9-23.2 17.4-41zM901.7 194.9l260.6 89.7-7.2 20.9-260.5-89.7 7.1-20.9M731.7 525.1l220.2 71.6-3.4 10.5-220.2-71.6 3.4-10.5M741.9 488.7l354.4 122-3.6 10.5-354.4-122.1 3.6-10.4M758.6 449.9l354.3 122-3.6 10.5L755 460.3l3.6-10.4M769.6 416.7l354.4 122-3.6 10.4-354.4-122 3.6-10.4M780.7 377.9l354.4 122-3.6 10.4-354.4-122 3.6-10.4M799.8 338.5l349.9 134.3-4 10.3-349.9-134.3 4-10.3M808.4 305.8l354.4 122.1-3.6 10.4-354.4-122 3.6-10.5M1038.7 730.8c-6.3 17.4-23 29-41.4 29-5.1 0-10.2-.9-15.1-2.7-11.1-4-19.9-12.1-24.9-22.8-5-10.7-5.5-22.6-1.5-33.7 6.3-17.4 23-29 41.4-29 5.1 0 10.2.9 15.1 2.7 11.1 4 19.9 12.1 24.9 22.8 5 10.7 5.5 22.6 1.5 33.7zm-22.6-66.9c-6.1-2.2-12.4-3.3-18.8-3.3-23.1 0-43.9 14.6-51.8 36.3-5 13.8-4.4 28.8 1.8 42.1 6.2 13.4 17.3 23.5 31.1 28.5 6.1 2.2 12.4 3.3 18.8 3.3 23.1 0 43.9-14.6 51.8-36.3 5-13.8 4.4-28.8-1.8-42.1s-17.3-23.4-31.1-28.5z"/><path d="M1070.5 878.9L727.4 754l23.2-8.4c16.6-6 23.9-23.3 17.4-41.1l-84-230.6L833 65.1l471.3 171.5-233.8 642.3zM826.4 51L678.2 458l-48-132-10.4 3.8 137.7 378.4c4.4 12-.1 23.1-10.8 27l-271.8 98.9 3.8 10.4 232.5-84.6L1077.1 893l241.3-662.9L826.4 51z"/></g></svg>