<svg xmlns="http://www.w3.org/2000/svg" viewBox="0 0 127.6 32"><path fill="#FF671B" d="M28.5 0H99c2.9 0 5.3 2.4 5.3 5.3v21.3c0 2.9-2.4 5.3-5.3 5.3H28.5c-2.9 0-5.3-2.4-5.3-5.3V5.3c0-2.9 2.4-5.3 5.3-5.3z"/><g fill="#FFF"><path d="M69.2 20.8c1.3-1.3 1.9-3.1 1.9-4.9 0-1.8-.7-3.6-1.9-4.9C67.8 9.6 66 8.8 64 8.8s-3.8.8-5.2 2.2c-1.3 1.3-1.9 3.1-1.9 4.9 0 1.8.7 3.6 1.9 4.9C60.2 22.2 62 23 64 23c2 .1 3.8-.7 5.2-2.2m-3 1c.4-.5.7-1 .9-1.7.4.1.7.3 1 .5-.5.5-1.2.9-1.9 1.2m2.6-1.9c-.4-.3-.9-.5-1.4-.7.2-.9.4-1.8.4-2.8h2.4c-.1 1.3-.6 2.5-1.4 3.5m1.4-4.4h-2.4c0-1-.2-2-.4-2.8.5-.2 1-.4 1.4-.7.8 1 1.3 2.2 1.4 3.5m-2.1-4.2c-.3.2-.7.4-1 .5-.2-.7-.6-1.2-.9-1.7.7.3 1.4.7 1.9 1.2m-3.7-1.5c.6.2 1.1.8 1.5 1.6.1.2.2.4.3.7-.6.2-1.2.3-1.8.3V9.8zm0 3.5c.7 0 1.4-.1 2.1-.3.2.8.3 1.7.4 2.6h-2.4v-2.3zm0 3.1h2.4c0 .9-.2 1.8-.4 2.6-.7-.2-1.4-.3-2.1-.3v-2.3zm0 3.1c.6 0 1.2.1 1.8.3-.1.2-.2.5-.3.7-.4.9-1 1.4-1.5 1.6v-2.6zm-2.6-9.4c-.4.5-.7 1-.9 1.7-.4-.1-.7-.3-1.1-.5.6-.5 1.3-.9 2-1.2M59.2 12c.4.3.9.5 1.4.7-.2.9-.4 1.8-.4 2.8h-2.4c.1-1.3.6-2.5 1.4-3.5m-1.4 4.4h2.4c0 1 .2 2 .4 2.8-.5.2-1 .4-1.4.7-.8-1-1.3-2.2-1.4-3.5m2.1 4.2c.3-.2.7-.4 1.1-.5.2.7.6 1.2.9 1.7-.8-.3-1.5-.7-2-1.2m3.6 1.5c-.5-.2-1.1-.8-1.5-1.6-.1-.2-.2-.4-.3-.7.6-.2 1.2-.3 1.8-.3v2.6zm0-3.5c-.7 0-1.4.1-2.1.3-.2-.8-.3-1.7-.4-2.6h2.4v2.3zm0-3.1h-2.4c0-.9.2-1.8.4-2.6.7.2 1.4.3 2.1.3v2.3zm0-3.1c-.6 0-1.2-.1-1.8-.3.1-.2.2-.5.3-.7.4-.9 1-1.4 1.5-1.6v2.6zM71.9 9.8c-.2-.2-.4-.2-.6-.1-.2.2-.2.4-.1.6l.1.1c.1.1.2.2.4.2.1 0 .2 0 .3-.1.2-.1.2-.4.1-.6-.1 0-.2-.1-.2-.1M73.1 11.7c-.1-.2-.4-.3-.6-.2-.2.1-.3.4-.2.6.6 1.2.9 2.5.9 3.9 0 .7-.1 1.4-.2 2.1-.1.2.1.5.3.5h.1c.2 0 .4-.1.4-.3.2-.7.3-1.5.3-2.3-.1-1.5-.4-3-1-4.3M58 22.9c-.1-.1-.2-.2-.3-.2-.2-.2-.5-.2-.6 0-.2.2-.2.5 0 .6l.3.3c.1.1.2.1.3.1.1 0 .2-.1.3-.2.3-.2.2-.5 0-.6M54.9 15.9c0-.7.1-1.4.2-2.1.1-.2-.1-.5-.3-.5-.2-.1-.5.1-.5.3-.2.7-.3 1.5-.3 2.3 0 1.8.5 3.5 1.3 5 .1.1.2.2.4.2.1 0 .2 0 .2-.1.2-.1.3-.4.2-.6-.8-1.3-1.2-2.9-1.2-4.5"/><path d="M70.9 22.2h-1.7c-.2 0-.4.2-.5.4 0 .2.2.4.4.5h.5c-1.6 1.3-3.6 2-5.7 2-1.3 0-2.5-.3-3.6-.8-.2-.1-.5 0-.6.2s0 .5.2.6c1.3.6 2.6.8 4 .8 2.3 0 4.5-.8 6.2-2.2l-.1.4c0 .2.1.5.4.5h.1c.2 0 .4-.1.4-.4l.3-1.6c0-.1 0-.3-.1-.4.1.1-.1 0-.2 0M58.8 9.7c.2 0 .4-.2.5-.4 0-.2-.2-.4-.4-.5h-.5c1.6-1.3 3.6-2 5.7-2s4.2.7 5.8 2.1c.1.2.3.1.5-.1s.1-.5-.1-.6c-1.8-1.5-4-2.3-6.3-2.3s-4.4.8-6.2 2.1l.1-.4c0-.2-.1-.5-.4-.5-.2 0-.5.1-.5.4l-.3 1.6c0 .1 0 .3.1.4.1.1.2.2.3.2h1.7z"/></g></svg>