<svg xmlns="http://www.w3.org/2000/svg" viewBox="0 0 811.7 528.5"><g fill="#FFF"><path d="M397.4 389.1c-25.1-1.8-48.8-12.6-66.5-30.5l-6.2-6.2 16.4-16.4c15.5 13.9 35.5 21.8 56.3 22.3v30.8zM283.9 396c4.9 4.9 4.9 12.9 0 17.9l-3.4 3.4-10.4-10.4 12.4-12.4 1.4 1.5zm-3.4 68.1l-33.8-33.8 12.4-12.4 33.8 33.8-12.4 12.4zm-90.3-70.8l113.7-113.7 35.7 35.7L225.9 429l-35.7-35.7zm168.2-156.6l2.3 2.3 10.1 10.1-37.7 37.7-12.4-12.4 37.7-37.7zm46.8 105.9h-5.9c-17.4 0-34.1-6.3-47.2-17.7l4.1-4.1c3-3 3-8 0-11l-12-12 43.2-43.2c3-3 3-8 0-11L371.7 228l-7.8-7.8-7.8-7.8c-3.1-3-7.9-2.9-10.9.1s-3 7.9-.1 10.9l2.3 2.3-37.7 37.7-.3-.3c-3-3-8-3-11 0L173.7 387.8c-3 3-3 8 0 11l46.8 46.8c3 3 8 3 11 0l4.2-4.2 39.3 39.3c3 3 8 3 11 0l23.4-23.4c3-3 3-8 0-11l-17.9-17.9 3.4-3.4c11-11 11-28.9 0-39.9l-1.5-1.5 20.2-20.2 6.2 6.2c22.6 22.7 53.3 35.4 85.3 35.4 4.3 0 7.8-3.5 7.8-7.8v-46.8c.1-4.3-3.4-7.8-7.7-7.8z"/><path d="M310.4 308.6c-3-3-8-3-11 0l-39 39c-2 2-2.8 4.9-2.1 7.6.7 2.7 2.8 4.9 5.6 5.6 2.7.7 5.6-.1 7.6-2.1l39-39c2.9-3.1 2.9-8.1-.1-11.1zM319.9 160.9l15 18.7H305l14.9-18.7zm-31.1 34.3h62.3c3 0 5.7-1.7 7-4.4 1.3-2.7.9-5.9-.9-8.2l-31.2-39c-1.5-1.8-3.8-2.8-6.1-2.8s-4.6 1-6.1 2.8l-31.2 39c-1.9 2.3-2.2 5.5-.9 8.2 1.3 2.7 4.1 4.4 7.1 4.4z"/><path d="M357.7 124.5c-8.6 0-15.6-7-15.6-15.6s7-15.6 15.6-15.6 15.6 7 15.6 15.6c0 8.7-7 15.6-15.6 15.6zm-78-31.1c8.6 0 15.6 7 15.6 15.6s-7 15.6-15.6 15.6-15.6-7-15.6-15.6c.1-8.7 7-15.6 15.6-15.6zM453.5 208c3.1 3 7.9 2.9 10.9-.1s3-7.9.1-10.9l-11.7-11.7c-8.9-9-21.1-14-33.7-14h-30.2v-70.1c0-38.7-31.4-70.1-70.1-70.1-38.7 0-70.1 31.4-70.1 70.1v70.1h-30.2c-26.3 0-47.7 21.4-47.7 47.7v123.8c0 4.3 3.5 7.8 7.8 7.8s7.8-3.5 7.8-7.8V219c0-8.5 3.4-16.7 9.4-22.7s14.2-9.4 22.7-9.4h38c4.3 0 7.8-3.5 7.8-7.8v-43.3c4.7 2.8 10.1 4.3 15.6 4.3 12.6.1 23.9-7.4 28.9-18.9 4.9-11.6 2.5-24.9-6.3-34-8.7-9-22.1-11.9-33.8-7.3 8.4-20.2 28.2-33.4 50.1-33.4 21.9 0 41.7 13.2 50.1 33.4-13.6-5.3-29-.6-37.2 11.5-8.2 12.1-6.9 28.2 3.1 38.8 10 10.6 26 12.9 38.6 5.5V179c0 4.3 3.5 7.8 7.8 7.8h38c8.5 0 16.7 3.4 22.7 9.4l11.6 11.8zM614.6 139.7l7.8-7.8c3-3.1 2.9-7.9-.1-10.9s-7.9-3-10.9-.1l-7.8 7.8c-2 2-2.8 4.9-2.1 7.6s2.8 4.9 5.6 5.6c2.7.7 5.6-.2 7.5-2.2zM603.7 200.6l7.8 7.8c3.1 3 7.9 2.9 10.9-.1s3.1-7.9.1-10.9l-7.8-7.8c-3.1-3-7.9-2.9-10.9.1-3 2.9-3.1 7.8-.1 10.9zM633.3 154.6h-15.6c-4.3 0-7.8 3.5-7.8 7.8s3.5 7.8 7.8 7.8h15.6c4.3 0 7.8-3.5 7.8-7.8 0-4.4-3.5-7.8-7.8-7.8zM555 382c0 4.3 3.5 7.8 7.8 7.8s7.8-3.5 7.8-7.8-3.5-7.8-7.8-7.8h-.1c-4.2 0-7.7 3.5-7.7 7.8zM242.6 369.6c-4.4 0-7.9 3.5-7.9 7.9 0 4.3 3.5 7.8 7.8 7.8s7.8-3.5 7.8-7.8c.1-4.4-3.4-7.9-7.7-7.9zM498.8 389.8c4.3 0 7.8-3.5 7.8-7.8s-3.5-7.8-7.8-7.8h-.1c-4.3 0-7.8 3.5-7.8 7.8s3.6 7.8 7.9 7.8zM530.8 387.9c-4.4 0-7.9 3.5-7.9 7.9 0 4.3 3.5 7.8 7.8 7.8s7.8-3.5 7.8-7.8c.1-4.4-3.4-7.9-7.7-7.9zM527.8 370.3c3 3 8 3 11 0l23.4-23.4c3-3.1 2.9-7.9-.1-10.9s-7.9-3-10.9-.1l-17.9 17.9-10.1-10.1c-3.1-3-7.9-2.9-10.9.1s-3 7.9-.1 10.9l15.6 15.6z"/><path d="M617.1 419.5h-41.7c16.5-13.3 26.1-33.3 26.1-54.6 0-21.2-9.6-41.3-26.1-54.6h41.7v109.2zm-23.4 62.4c-9.9 0-18.7-6.3-21.9-15.6h43.9c-3.3 9.3-12.1 15.5-22 15.6zm-62.3 0c-9.9 0-18.7-6.3-21.9-15.6h43.9c-3.4 9.3-12.1 15.5-22 15.6zm-62.4 0c-9.9 0-18.7-6.3-21.9-15.6H491c-3.3 9.3-12.1 15.5-22 15.6zm-23.3-171.5h41.7c-16.5 13.3-26.1 33.3-26.1 54.6 0 21.2 9.6 41.3 26.1 54.6h-41.7V310.4zm23.3-62.3c9.9 0 18.7 6.3 21.9 15.6H447c3.4-9.3 12.2-15.6 22-15.6zm62.4 0c9.9 0 18.7 6.3 22 15.6h-43.9c3.2-9.3 12-15.6 21.9-15.6zm62.3 0c9.9 0 18.7 6.3 21.9 15.6h-43.9c3.4-9.3 12.2-15.6 22-15.6zm31.2 187v15.6h-187v-15.6h187zm-39-70.1c0 30.1-24.4 54.6-54.6 54.6-30.1 0-54.6-24.4-54.6-54.6 0-30.1 24.4-54.6 54.6-54.6 30.2.1 54.6 24.5 54.6 54.6zm-148-70.2v-15.6h187v15.6h-187zm194.8-31.1h-.8c-3-15.1-14.7-26.9-29.7-30.3-15-3.3-30.6 2.5-39.7 14.9-5.7-7.7-14-13.1-23.4-15v-31c0-17.7 14.4-32.1 32.1-32.1h14.6c4.3 0 7.8-3.5 7.8-7.8s-3.5-7.8-7.8-7.8h-14.6c-26.3 0-47.7 21.4-47.7 47.7v31c-9.4 2-17.7 7.3-23.4 15-9.1-12.4-24.7-18.2-39.7-14.9-15 3.3-26.7 15.2-29.7 30.3h-.8c-4.3 0-7.8 3.5-7.8 7.8v31.2c0 4.3 3.5 7.8 7.8 7.8v109.1c-4.3 0-7.8 3.5-7.8 7.8v31.2c0 4.3 3.5 7.8 7.8 7.8h.8c3 15.1 14.7 26.9 29.7 30.3 15 3.3 30.6-2.5 39.7-14.9 7.3 9.9 18.9 15.8 31.2 15.8s23.9-5.9 31.2-15.8c9.1 12.4 24.7 18.2 39.7 14.9 15-3.3 26.7-15.2 29.7-30.3h.8c4.3 0 7.8-3.5 7.8-7.8v-31.2c0-4.3-3.5-7.8-7.8-7.8V310.4c4.3 0 7.8-3.5 7.8-7.8v-31.2c0-4.2-3.5-7.7-7.8-7.7z"/></g></svg>