<svg xmlns="http://www.w3.org/2000/svg" viewBox="0 0 127.6 32"><path fill="#FB3449" d="M28.5 0H99c2.9 0 5.3 2.4 5.3 5.3v21.3c0 2.9-2.4 5.3-5.3 5.3H28.5c-2.9 0-5.3-2.4-5.3-5.3V5.3c0-2.9 2.4-5.3 5.3-5.3z"/><path fill="#FFF" d="M75.7 12.1L74 6.5c-.1-.2-.2-.3-.4-.3H56.1c-.2 0-.4.1-.4.3L54 12.1c0 .1 0 .3.1.4.1.1.2.2.3.2h.4V25c0 .2.2.4.4.4h19.1c.2 0 .4-.2.4-.4V12.6h.4c.1 0 .3-.1.3-.2.3-.1.3-.2.3-.3M55 11.8l1.4-4.6h7.5l-2.7 3.3c-.1.1-.1.2-.1.3v1.1H55zm11.8 12.7h-4v-3.2h.3c.2 0 .4-.2.4-.4s-.2-.4-.4-.4h-.3v-3.2h4v7.2zm7.2 0h-6.3v-7.7c0-.2-.2-.4-.4-.4h-4.9c-.2 0-.4.2-.4.4v7.7h-6.3V12.6h5.8c.2 0 .4-.2.4-.4v-1.4l2.9-3.4 2.9 3.4v1.4c0 .2.2.4.4.4H74v11.9zm-5.4-12.7v-1.1c0-.1 0-.2-.1-.3l-2.8-3.3h7.5l1.4 4.6h-6z"/><path fill="#FFF" d="M64.8 9.7c-.9 0-1.6.7-1.6 1.6 0 .9.7 1.6 1.6 1.6.9 0 1.6-.7 1.6-1.6 0-.8-.7-1.6-1.6-1.6m0 2.4c-.4 0-.8-.3-.8-.8 0-.4.3-.8.8-.8.4 0 .8.3.8.8s-.4.8-.8.8M69 17.4v4.3c0 .2.2.4.4.4h2.8c.2 0 .4-.2.4-.4v-4.3c0-.2-.2-.4-.4-.4h-2.8c-.2-.1-.4.1-.4.4m.9.4h1.9v3.5h-1.9v-3.5zM60.2 16.9h-2.8c-.2 0-.4.2-.4.4v4.3c0 .2.2.4.4.4h2.8c.2 0 .4-.2.4-.4v-4.3c0-.2-.2-.4-.4-.4m-.4 4.4h-1.9v-3.5h1.9v3.5zM61.2 13.2H61c-.2 0-.4.2-.4.4s.2.4.4.4h.2c.2 0 .4-.2.4-.4s-.2-.4-.4-.4M59.8 13.6c0-.2-.2-.4-.4-.4h-2.7c-.2 0-.4.2-.4.4s.2.4.4.4h2.7c.2 0 .4-.2.4-.4M38.7 22c0 .2.2.4.4.4h.1c.2 0 .4-.2.4-.4s-.2-.4-.4-.4h-.1c-.3 0-.4.2-.4.4"/><path fill="#FFF" d="M31.3 22.9v.6c0 .2.2.4.4.4h1.8c.3.8 1.1 1.4 2.1 1.4.9 0 1.8-.6 2.1-1.4H45c.3.8 1.1 1.4 2.1 1.4s1.8-.6 2.1-1.4h2c.2 0 .4-.2.4-.4v-2.8c0-1.1-.9-1.9-1.9-1.9h-.1c-.6 0-1.2-.5-1.3-.7l-.7-.9c-.5-.7-1.3-1.4-2-1.4h-4.3c-.7 0-1.6.7-2.1 1.4-.2.3-1 1.3-1.2 1.6h-2.5c-2.4 0-4.2 1.9-4.2 4.1m9.8-6.3h2.4c.1.1 1.2 1.6 1.5 2.1v.1s0 .1-.1.1h-6c.1-.1.6-.8.9-1.2.4-.7 1-1.1 1.3-1.1zm4.6 6.5c0-.8.6-1.4 1.4-1.4.8 0 1.4.6 1.4 1.4 0 .8-.6 1.4-1.4 1.4-.8 0-1.4-.6-1.4-1.4m-11.5 0c0-.8.6-1.4 1.4-1.4.8 0 1.4.6 1.4 1.4 0 .8-.6 1.4-1.4 1.4-.8 0-1.4-.6-1.4-1.4m-2.1 0v-.2c0-1.8 1.4-3.2 3.2-3.2h9.6c.3 0 .7-.2.8-.5.2-.3.2-.7 0-1-.3-.5-.7-1.1-1.1-1.6h.9c.3 0 .9.4 1.3 1l.7.9c.2.4 1 1.1 2 1.1h.1c.5 0 .9.3 1 .7h-.3c-.2 0-.4.2-.4.4s.2.4.4.4h.4v1.8h-1.4c0-1.2-1-2.2-2.2-2.2-.6 0-1.2.3-1.6.7h-4.6c-.2 0-.4.2-.4.4s.2.4.4.4H45c-.1.2-.1.4-.1.7h-7c0-1.2-1-2.2-2.2-2.2-1.2 0-2.2 1-2.2 2.2h-1.4zM78.3 19.8l6.3 6.9c.1.1.3.1.4 0l6.3-6.9c.1-.1.1-.3 0-.4l-2.6-2.8c-.1-.1-.1-.1-.2-.1h-7.4c-.1 0-.1 0-.2.1l-2.6 2.8c-.1.2-.1.3 0 .4m3.5-.4h-2.7l1.9-2.1.8 2.1zm2.3-2.3l-1.9 2.1-.8-2.1h2.7zm.6.1l2 2.2h-3.9l1.9-2.2zm3.3-.1l-.8 2.1-1.9-2.1H88zm2.4 2.3h-2.7l.8-2.1 1.9 2.1zm-4.9 5.9l2-5.4h2.9l-4.9 5.4zm-2.9-5.4h4.3l-2.2 5.8-2.1-5.8zm-3.5 0H82l2 5.4-4.9-5.4zM85.8 9.3l5.1 5.6c.1.1.2.1.3 0l5.1-5.6c.1-.1.1-.2 0-.3l-2.1-2.3s-.1-.1-.2-.1h-6c-.1 0-.1 0-.2.1l-2 2.3c-.1.1 0 .2 0 .3m2.9-.4h-2.2L88 7.2l.7 1.7zm1.9-1.8l-1.5 1.7-.7-1.7h2.2zm.5.1L92.7 9h-3.2l1.6-1.8zm2.7-.1l-.7 1.7-1.5-1.7h2.2zm1.9 1.8h-2.2l.7-1.7 1.5 1.7zm-4 4.9l1.6-4.4h2.4l-4 4.4zm-2.4-4.4h3.5L91 14.1l-1.7-4.7zm-2.8 0h2.4l1.6 4.4-4-4.4z"/></svg>