<svg xmlns="http://www.w3.org/2000/svg" width="612" height="612"><g fill="#9FDDED"><path opacity=".29" d="M456.8 0C542.5 0 612 69.5 612 155.2v301.7c0 85.7-69.5 155.2-155.2 155.2H155.2C69.5 612 0 542.5 0 456.8V155.2C0 69.5 69.5 0 155.2 0h301.6z"/><path d="M385.4 284.5H278c-6 0-10.8 4.8-10.8 10.8S272 306 278 306h107.4c6 0 10.8-4.8 10.8-10.8s-4.8-10.7-10.8-10.7zM385.4 241.4H278c-6 0-10.8 4.8-10.8 10.8 0 6 4.8 10.8 10.8 10.8h107.4c6 0 10.8-4.8 10.8-10.8 0-6-4.8-10.8-10.8-10.8z"/><path d="M424.2 376.4c-3.8-1.3-7.9-.3-10.8 2.4-44.4 39.9-111.5 40.3-156.4 1-44.9-39.3-53.3-105.9-19.6-155.2 33.7-49.2 98.8-65.6 151.7-38 52.9 27.6 76.9 90.3 55.8 146.1-1.1 3-.9 6.3.6 9.1l27.5 49.5-48.8-14.9zm-172.7 54c-22.3 0-44.1-6.4-62.8-18.6-3-1.9-6.7-2.3-9.9-1l-37.9 15.5 15.9-36.7c1.6-3.5 1.3-7.6-1-10.8-21.2-31.8-25.3-72-10.9-107.4 14.3-35.4 45.3-61.4 82.6-69.4-29.3 35.5-39.2 83.2-26.4 127.4 12.8 44.2 46.5 79.3 90.2 93.8-12.8 4.7-26.3 7.1-39.8 7.2zm253.2-14.7c2.7-3.4 3.1-8.2 1-12l-38-69.1c19.1-57.6-1.1-120.9-50.1-156.6-49-35.8-115.5-35.7-164.5 0h-1.7c-49.5 0-95.2 26.8-119.4 70s-23.2 96.1 2.6 138.4l-24.1 56.1c-1.7 4-.9 8.7 2.2 11.8 3.1 3.1 7.8 4.1 11.8 2.4l57.2-23.5c44.7 26.2 100.3 24.9 143.8-3.3h9.5c32.5-.1 63.9-11.6 88.8-32.4l69.1 20.7c4.1 1.7 8.8.6 11.8-2.5z"/><path d="M385.4 327.6H278c-6 0-10.8 4.8-10.8 10.8s4.8 10.8 10.8 10.8h107.4c6 0 10.8-4.8 10.8-10.8s-4.8-10.8-10.8-10.8z"/></g></svg>