<svg xmlns="http://www.w3.org/2000/svg" width="611.6" height="611.6"><g fill="#9FDDED"><path opacity=".29" d="M456.5 0c85.6 0 155 69.4 155 155v301.5c0 85.6-69.4 155-155 155H155c-85.6 0-155-69.4-155-155V155C0 69.4 69.4 0 155 0h301.5z"/><path d="M271.7 150.6c2-.7 3.4-2.7 3.4-4.7 4.1-16.9 16.2-29 29.7-29s25.7 12.2 29.7 29c.7 2 2 4.1 3.4 4.7 1.4 1.3 3.4 5.4 3.4 10.8 0 6.1-2 9.5-3.4 10.1-2.7 0-5.4 1.4-6.1 4.1-6.1 14.9-16.9 30.4-27 30.4-10.1 0-20.9-15.5-27-30.4-1.4-2.7-3.4-4.1-6.1-4.1-.7-.7-3.4-4.1-3.4-10.8 0-4.7 2-8.7 3.4-10.1zm-4.8 33.8c8.1 17.6 21.6 35.1 37.8 35.1 19.6 0 33.1-23.6 37.8-35.1 4.7-2 8.8-6.8 10.8-14.2 2.7-10.1.7-23-6.8-29.7-6.1-22.3-23-37.1-41.9-37.1-19.6 0-36.5 14.9-41.9 37.1-7.4 6.1-8.8 19.6-6.8 29.7 2.3 6.8 5.6 12.2 11 14.2z"/><path d="M502.5 397.8H108.3v-38.5h394.3v38.5zM389.1 493H221.7L194 411.3h222.1l-27 81.7zM214.9 256c1.4-7.4 7.4-14.2 16.2-16.9 10.1-3.4 21.6-5.4 34.4-6.8-6.8 33.8 6.8 70.2 35.1 97.2 2.7 2.7 6.8 2.7 9.5 0 29-27.7 41.9-62.8 35.1-97.2 11.5 1.3 23 4.1 33.8 6.8 8.8 2.7 15.5 9.5 16.9 16.9l17.6 90.5H197.4l17.5-90.5zm85.8 10.8h10.1l2.7 39.2c-2.7 3.4-5.4 6.1-8.1 9.5-2.7-2.7-5.4-6.1-8.1-9.5l3.4-39.2zm-4.8-26.3h18.9v6.8l-2.7 6.1h-13.5l-2.7-6.1v-6.8zm-89.1-41.2l18.2-10.8c1.4-.7 3.4-.7 4.7 1.3.7 1.3.7 3.4-1.4 4.7l-18.2 10.8c-1.4.7-3.4.7-4.7-1.3-.6-2-.6-4 1.4-4.7zm302.5 147.2h-81.7l-18.2-91.8c-2-12.8-12.2-23.6-26.3-27.7-14.2-4.1-29.7-6.8-45.9-8.8-2 0-4.7.7-6.1 2.7s-2 4.1-1.4 6.1c6.1 19.6 4.1 39.8-4.7 58.7l-2-24.3 4.1-10.1c0-.7.7-2 .7-2.7v-14.9c0-4.1-2.7-6.8-6.8-6.8h-32.4c-4.1 0-6.8 2.7-6.8 6.8v14.9c0 .7 0 2 .7 2.7l4.1 10.1-1.4 24.3c-8.8-18.9-10.1-39.8-4.7-58.7.7-2 0-4.7-1.4-6.1-1.4-2-3.4-2.7-6.1-2.7-16.9 1.4-32.4 4.7-46.6 8.8-14.2 4-24.3 14.9-25.7 27.7l-18.2 92.5h-25.7v-87.8c0-8.1 4.1-15.5 10.1-20.3l31.7-23c6.1 4.1 12.8 3.4 17.6 0l18.2-10.8c8.1-4.7 10.1-14.9 5.4-23-4.7-8.1-15.5-10.1-23-5.4l-18.2 10.8c-6.1 3.4-8.8 10.8-7.4 16.9l-32.4 23.6c-10.1 7.4-15.5 18.9-15.5 31.1v86.4h-41.9c-4.1 0-6.8 2.7-6.8 6.8v52c0 4.1 2.7 6.8 6.8 6.8h78.3l31.1 90.5c.7 2.7 3.4 4.7 6.1 4.7h176.9c2.7 0 5.4-2 6.1-4.7l30.4-90.5h78.3c4.1 0 6.8-2.7 6.8-6.8v-52c.7-3.3-2-6-6.1-6z"/></g></svg>