<svg xmlns="http://www.w3.org/2000/svg" width="850.4" height="850.4"><path fill="#FB3449" d="M0 .2h849.7v849.7H0z"/><path fill="#C31C4A" d="M0 .1h849.7v849.7H0z"/><path fill="none" d="M168.9 169h512v512h-512z"/><path fill="none" d="M168.9 169h512v512h-512z"/><g fill="none"><g stroke="#FFF" stroke-width="21.333" stroke-linecap="round" stroke-linejoin="round" stroke-miterlimit="10"><path d="M285 670.5V522.7M564 307.8v362.7M466.4 467.9l-89.8 89.8-111.4-111.5c-3.2-3.2-4.8-7.8-4.1-12.3l9.7-72 72-9.7c4.5-.6 9.1.9 12.3 4.1l111.3 111.6zM343.3 475.8l21.8-21.8M372 504.5l41-40.9"/><path d="M670.6 625.1c0 25.1-20.3 45.4-45.4 45.4H223.7c-25.1 0-45.4-20.3-45.4-45.4v-272c0-25.1 20.3-45.4 45.4-45.4h401.6c25.1 0 45.4 20.3 45.4 45.4v272zM349.2 265.1v-7.9c0-19.9 17.1-36 38.1-36h74.3c21 0 38.1 16.1 38.1 36v7.9"/></g><path d="M168.9 168.9h512v512h-512z"/></g></svg>